<mxfile host="app.diagrams.net" modified="2023-10-11T16:50:44.390Z" agent="Mozilla/5.0 (Macintosh; Intel Mac OS X 10_15_7) AppleWebKit/605.1.15 (KHTML, like Gecko) Version/16.6 Safari/605.1.15" version="22.0.4" etag="5_uf8inpxTnzGiCJPeMA" type="github">
  <diagram name="Page-1" id="XmXVr0m_O3OawCJsEPbr">
    <mxGraphModel>
      <root>
        <mxCell id="0" />
        <mxCell id="1" parent="0" />
      </root>
    </mxGraphModel>
  </diagram>
</mxfile>
